<svg xmlns="http://www.w3.org/2000/svg" viewBox="0 0 2029.43 389.69"><defs><style>.cls-1,.cls-4{fill:none;stroke:#6abdea;stroke-miterlimit:10;}.cls-1{stroke-width:6px;}.cls-2{fill:#6abdea;}.cls-3{fill:#fff;}.cls-4{stroke-width:9.5px;}</style></defs><title>opif</title><g id="Layer_2" data-name="Layer 2"><g id="Layer_1-2" data-name="Layer 1"><path class="cls-1" d="M231.53,4.51C212.08,17.17,146.26,63.4,117.3,153.71c-26.32,82.07-6.44,151.36,1.33,174.53"/><path class="cls-1" d="M281,11.45a374.86,374.86,0,0,0-95.48,362.1"/><path class="cls-1" d="M315.46,18.5a503.17,503.17,0,0,1-5.68,195A502.89,502.89,0,0,1,237,381.7"/><path class="cls-1" d="M369.68,46.2C380.24,73.68,401,139,385.08,220.64c-15.41,79.06-57,131.24-76.84,153.32"/><path class="cls-1" d="M140.61,39.48a222.25,222.25,0,0,0,71.94,55c89.63,42.57,178.55,8.24,197.33.5"/><path class="cls-1" d="M81.16,119.92c21,22.18,69.72,67.45,147,89.06,102.79,28.75,188-3.48,214.25-14.62"/><path class="cls-1" d="M63.67,224.33c19.28,22.7,60.26,64.4,126,88.27,106.92,38.79,201,2,224.59-8"/><path class="cls-2" d="M250.63,11h0l2.24,0c45.06.62,91,19.71,125.91,52.37,37.45,35,58.08,81.69,58.08,131.47a183.84,183.84,0,0,1-367.67,0c0-50.09,21.78-87.9,28.46-98.3a189.19,189.19,0,0,1,65.6-61.8C190.57,19.22,220.79,11,250.63,11m0-11C185,0,122.82,37,88.38,90.61c-7.42,11.55-30.2,51.12-30.2,104.24,0,107.61,87.23,194.84,194.84,194.84s194.84-87.23,194.84-194.84C447.85,81.32,348.61,1.33,253,0l-2.39,0Z"/><path class="cls-3" d="M85.65,82.44C64.4,83.8,40.27,85.71,22.09,98.08,4.33,110.17-4.56,131.71,2.34,152.55,8,169.73,20.94,184,34,196.07a317.5,317.5,0,0,0,40.06,31c33.43,22.18,70.92,39.1,108.56,52.73,39.82,14.41,81.47,25.28,123.53,30.47,29.48,3.64,59.27,4.42,88.94,5.37a593.68,593.68,0,0,0,88-3.78c5.36-.63,10-4.15,10-10,0-4.92-4.6-10.63-10-10-49.33,5.77-99.16,4.54-148.63,1.11-42.54-3-84-12.19-124.66-25s-80.17-30.18-116.56-52.33a321.15,321.15,0,0,1-27-18.52c-11.51-8.73-26.4-21.72-35.22-33.45a79.91,79.91,0,0,1-6.86-10.7,35.48,35.48,0,0,1-3.7-10.14c-.08-.33-.43-3.24-.19-.88a42,42,0,0,1-.15-5.35,26.37,26.37,0,0,1,1.3-7.46,24.12,24.12,0,0,1,5.92-9.24C41.56,105.24,66,103.7,85.65,102.44c5.39-.35,10-4.35,10-10,0-5.14-4.58-10.35-10-10Z"/><path class="cls-3" d="M95.15,81.95A237.79,237.79,0,0,0,53.65,87c-2.52.53-1.45,4.39,1.06,3.86a231.56,231.56,0,0,1,40.43-4.92c2.57-.09,2.58-4.09,0-4Z"/><path class="cls-4" d="M109.14,71A167.73,167.73,0,0,0,87,102.23c-2.19,4-4.12,7.91-5.82,11.69"/><path class="cls-3" d="M591.95,185.3a45.11,45.11,0,0,1-17.68-16.77,48.89,48.89,0,0,1,0-48.49,45.11,45.11,0,0,1,17.68-16.77,56.42,56.42,0,0,1,46.67-1.89,42.88,42.88,0,0,1,16.06,12l-13.52,12.48q-9.23-10.66-22.88-10.66a30.38,30.38,0,0,0-15.08,3.71,26.33,26.33,0,0,0-10.33,10.33,32.54,32.54,0,0,0,0,30.16,26.33,26.33,0,0,0,10.33,10.33,30.38,30.38,0,0,0,15.08,3.71q13.65,0,22.88-10.79l13.52,12.48a42.15,42.15,0,0,1-16.12,12.09,53.53,53.53,0,0,1-21.45,4.16A52.26,52.26,0,0,1,591.95,185.3Z"/><path class="cls-3" d="M667.41,93.32h20.28v96.46H667.41Z"/><path class="cls-3" d="M777,119.84v69.94H757.76v-8.32a26.88,26.88,0,0,1-9.62,7A30.28,30.28,0,0,1,736,190.82q-13.78,0-21.84-7.93t-8.06-23.53V119.84h20.28v36.53q0,16.9,14.17,16.9a15.23,15.23,0,0,0,11.7-4.75q4.42-4.74,4.42-14.11V119.84Z"/><path class="cls-3" d="M854.93,123.29a32.22,32.22,0,0,1,12.55,12.61A38.08,38.08,0,0,1,872,154.81a38.08,38.08,0,0,1-4.55,18.92,32.21,32.21,0,0,1-12.55,12.61,35.64,35.64,0,0,1-17.74,4.49q-14.43,0-22-9.1v8.06H795.85V93.32h20.28v33.93q7.67-8.45,21.06-8.45A35.64,35.64,0,0,1,854.93,123.29Zm-8.45,45.63q5-5.26,5-14.1t-5-14.11a18.21,18.21,0,0,0-25.61,0q-5,5.26-5,14.11t5,14.1a18.2,18.2,0,0,0,25.61,0Z"/><path class="cls-3" d="M933.84,180.55Q923,169.76,923,149.74v-51H944V149q0,24.44,20.28,24.44,9.88,0,15.08-5.92t5.2-18.53V98.78h20.8v51q0,20-10.85,30.81T964.2,191.34Q944.7,191.34,933.84,180.55Z"/><path class="cls-3" d="M1088.28,126.6q8,7.8,8,23.14v40H1076V152.86q0-8.32-3.64-12.42t-10.53-4.09q-7.67,0-12.22,4.75t-4.55,14.1v34.58h-20.28V119.84h19.37V128a26.91,26.91,0,0,1,10-6.83,34.88,34.88,0,0,1,13.13-2.41Q1080.28,118.8,1088.28,126.6Z"/><path class="cls-3" d="M1183.5,160.53h-52.91a16.46,16.46,0,0,0,6.76,10.27q5.33,3.77,13.26,3.77a26.82,26.82,0,0,0,9.69-1.62,23.47,23.47,0,0,0,7.87-5.13l10.79,11.7q-9.88,11.31-28.86,11.31a45.64,45.64,0,0,1-20.93-4.62,33.81,33.81,0,0,1-14-12.8,35.26,35.26,0,0,1-4.94-18.59,35.75,35.75,0,0,1,4.88-18.53,34.15,34.15,0,0,1,13.39-12.87,41.45,41.45,0,0,1,37.64-.19,32.28,32.28,0,0,1,13.06,12.67,37.81,37.81,0,0,1,4.75,19.17Q1183.89,155.46,1183.5,160.53ZM1136.05,138a16.61,16.61,0,0,0-5.72,10.66h34.45a16.77,16.77,0,0,0-5.72-10.59,17.1,17.1,0,0,0-11.44-4A17.47,17.47,0,0,0,1136.05,138Z"/><path class="cls-3" d="M1203.91,188.68a44.46,44.46,0,0,1-13.26-5.39l6.76-14.56a42.5,42.5,0,0,0,11.31,4.88,47.39,47.39,0,0,0,13,1.88q12.87,0,12.87-6.37,0-3-3.51-4.29a52.14,52.14,0,0,0-10.79-2.21,103.64,103.64,0,0,1-14.17-3,22,22,0,0,1-9.69-6q-4.09-4.29-4.09-12.22a19.14,19.14,0,0,1,3.83-11.76,24.68,24.68,0,0,1,11.18-8,47.77,47.77,0,0,1,17.35-2.86,68.2,68.2,0,0,1,14.75,1.63,41.34,41.34,0,0,1,12.15,4.49l-6.76,14.43a40.38,40.38,0,0,0-20.15-5.2q-6.5,0-9.75,1.82t-3.25,4.68q0,3.25,3.51,4.55a62.09,62.09,0,0,0,11.18,2.47,120.33,120.33,0,0,1,14,3.05,21.11,21.11,0,0,1,9.49,5.92q4,4.29,4,12a18.47,18.47,0,0,1-3.9,11.57,24.89,24.89,0,0,1-11.37,7.87,50.71,50.71,0,0,1-17.74,2.79A67.9,67.9,0,0,1,1203.91,188.68Z"/><path class="cls-3" d="M1280.16,186.21a34.53,34.53,0,0,1-13.91-12.8,37,37,0,0,1,0-37.18,34.55,34.55,0,0,1,13.91-12.81,43,43,0,0,1,20.08-4.62,38.94,38.94,0,0,1,19.3,4.62,27.39,27.39,0,0,1,12,13.2l-15.73,8.45q-5.46-9.62-15.73-9.62a17.8,17.8,0,0,0-13.13,5.2q-5.2,5.2-5.2,14.17T1287,169a17.79,17.79,0,0,0,13.13,5.2q10.4,0,15.73-9.62l15.73,8.58a27.93,27.93,0,0,1-12,13,38.49,38.49,0,0,1-19.3,4.68A43,43,0,0,1,1280.16,186.21Z"/><path class="cls-3" d="M1355.82,186.21a34.29,34.29,0,0,1-13.71-12.8,37.45,37.45,0,0,1,0-37.18,34.31,34.31,0,0,1,13.71-12.81,44.75,44.75,0,0,1,39.58,0,34.44,34.44,0,0,1,13.65,12.81,37.45,37.45,0,0,1,0,37.18,34.42,34.42,0,0,1-13.65,12.8,44.75,44.75,0,0,1-39.58,0Zm32.63-17.29q5-5.26,5-14.1t-5-14.11a16.89,16.89,0,0,0-12.8-5.26,17.1,17.1,0,0,0-12.87,5.26q-5.07,5.26-5.07,14.11t5.07,14.1a17.1,17.1,0,0,0,12.87,5.27A16.89,16.89,0,0,0,1388.45,168.92Z"/><path class="cls-3" d="M1544.77,150.72a22.77,22.77,0,0,1,4.42,14.24q0,12-9.29,18.4t-27.11,6.43h-47.06v-91h44.46q16.64,0,25.54,6.37a20.17,20.17,0,0,1,8.91,17.29,21.87,21.87,0,0,1-12.09,20A24,24,0,0,1,1544.77,150.72Zm-58.11-36.07v21.45h20.93q7.8,0,11.83-2.73a9.11,9.11,0,0,0,4-8.06,9,9,0,0,0-4-8q-4-2.66-11.83-2.67Zm37.12,56.55q4.22-2.73,4.22-8.45,0-11.31-16.77-11.31h-24.57v22.49h24.57Q1519.55,173.92,1523.78,171.19Z"/><path class="cls-3" d="M1631.87,160.53H1579a16.46,16.46,0,0,0,6.76,10.27q5.33,3.77,13.26,3.77a26.82,26.82,0,0,0,9.69-1.62,23.47,23.47,0,0,0,7.86-5.13l10.79,11.7q-9.88,11.31-28.86,11.31a45.64,45.64,0,0,1-20.93-4.62,33.81,33.81,0,0,1-14-12.8,35.27,35.27,0,0,1-4.94-18.59,35.75,35.75,0,0,1,4.88-18.53,34.16,34.16,0,0,1,13.39-12.87,41.45,41.45,0,0,1,37.63-.19,32.28,32.28,0,0,1,13.07,12.67,37.8,37.8,0,0,1,4.75,19.17Q1632.26,155.46,1631.87,160.53ZM1584.42,138a16.61,16.61,0,0,0-5.72,10.66h34.45a16.77,16.77,0,0,0-5.72-10.59,17.1,17.1,0,0,0-11.44-4A17.46,17.46,0,0,0,1584.42,138Z"/><path class="cls-3" d="M1659.24,186.21a34.29,34.29,0,0,1-13.72-12.8,37.45,37.45,0,0,1,0-37.18,34.31,34.31,0,0,1,13.72-12.81,44.75,44.75,0,0,1,39.58,0,34.44,34.44,0,0,1,13.65,12.81,37.45,37.45,0,0,1,0,37.18,34.43,34.43,0,0,1-13.65,12.8,44.75,44.75,0,0,1-39.58,0Zm32.63-17.29q5-5.26,5-14.1t-5-14.11a16.89,16.89,0,0,0-12.81-5.26,17.1,17.1,0,0,0-12.87,5.26q-5.07,5.26-5.07,14.11t5.07,14.1a17.1,17.1,0,0,0,12.87,5.27A16.9,16.9,0,0,0,1691.87,168.92Z"/><path class="cls-3" d="M1803.08,119.84v58.24q0,19.24-10,28.6T1763.82,216a73.2,73.2,0,0,1-19.24-2.47,42.06,42.06,0,0,1-15.08-7.15l8.06-14.56a33.2,33.2,0,0,0,11.18,5.79,44.49,44.49,0,0,0,13.52,2.14q10.53,0,15.53-4.75t5-14.36v-3q-7.93,8.71-22.1,8.71a37.1,37.1,0,0,1-17.62-4.23,32.18,32.18,0,0,1-12.67-11.89,35.74,35.74,0,0,1,0-35.36A32.21,32.21,0,0,1,1743.08,123a37.12,37.12,0,0,1,17.62-4.23q15.21,0,23.14,10v-9ZM1777.93,165a17.58,17.58,0,0,0,0-24.83q-5.14-4.74-13.2-4.75t-13.26,4.75a17.42,17.42,0,0,0,0,24.83q5.2,4.75,13.26,4.75T1777.93,165Z"/><path class="cls-3" d="M1851.12,121.4a36.44,36.44,0,0,1,14.24-2.6v18.72q-3.38-.26-4.55-.26-8.71,0-13.65,4.88t-4.94,14.63v33h-20.28V119.84h19.37v9.23A22.54,22.54,0,0,1,1851.12,121.4Z"/><path class="cls-3" d="M1930.22,126.54q8.71,7.74,8.71,23.33v39.91h-19v-8.71q-5.72,9.75-21.32,9.75a33.08,33.08,0,0,1-14-2.73,20.82,20.82,0,0,1-9-7.54,19.62,19.62,0,0,1-3.12-10.92q0-9.75,7.35-15.34t22.68-5.59h16.12q0-6.63-4-10.21t-12.09-3.58a35.29,35.29,0,0,0-11,1.75,29.09,29.09,0,0,0-9.17,4.75l-7.28-14.17a44,44,0,0,1,13.71-6.24,61.46,61.46,0,0,1,16.45-2.21Q1921.51,118.8,1930.22,126.54Zm-17.29,48.23a13.17,13.17,0,0,0,5.72-7.08v-7.15h-13.91q-12.48,0-12.48,8.19a7.29,7.29,0,0,0,3.05,6.17q3.05,2.28,8.38,2.27A17.66,17.66,0,0,0,1912.93,174.77Z"/><path class="cls-3" d="M2029.28,93.32v96.46h-19.37v-8.06q-7.54,9.1-21.84,9.1a36.31,36.31,0,0,1-17.87-4.42,31.64,31.64,0,0,1-12.54-12.61,38.42,38.42,0,0,1-4.55-19,38.43,38.43,0,0,1,4.55-19,31.65,31.65,0,0,1,12.54-12.61,36.33,36.33,0,0,1,17.88-4.42q13.39,0,20.93,8.45V93.32Zm-25,75.59q5.07-5.26,5.07-14.1t-5.07-14.11a18.2,18.2,0,0,0-25.61,0q-5.07,5.26-5.07,14.11t5.07,14.1a18.2,18.2,0,0,0,25.61,0Z"/><path class="cls-3" d="M590.16,270.74v19.52h28.08v6.88H590.16v22.64h-8v-56h39.52v7Z"/><path class="cls-3" d="M668.64,301.14h-34.4a13.31,13.31,0,0,0,4.92,9,16.05,16.05,0,0,0,10.44,3.4,15.73,15.73,0,0,0,12.24-5.12l4.24,5a18.56,18.56,0,0,1-7.16,5.12,27,27,0,0,1-21.48-1,19.66,19.66,0,0,1-8-7.72,22.13,22.13,0,0,1-2.84-11.2,22.48,22.48,0,0,1,2.76-11.12,19.77,19.77,0,0,1,7.6-7.72A21.65,21.65,0,0,1,647.84,277a21.22,21.22,0,0,1,10.84,2.76,19.4,19.4,0,0,1,7.44,7.72,23.53,23.53,0,0,1,2.68,11.36A22.06,22.06,0,0,1,668.64,301.14Zm-30-14.32a13.55,13.55,0,0,0-4.36,8.8h27.2a13.64,13.64,0,0,0-4.36-8.76,14.32,14.32,0,0,0-18.48,0Z"/><path class="cls-3" d="M719.44,260.42v59.36h-7.36v-6.72a16.62,16.62,0,0,1-6.48,5.36,20.07,20.07,0,0,1-8.64,1.84,22.27,22.27,0,0,1-11-2.72,19.48,19.48,0,0,1-7.64-7.64,24.51,24.51,0,0,1,0-22.6,19.57,19.57,0,0,1,7.64-7.6A22.29,22.29,0,0,1,697,277a20.32,20.32,0,0,1,8.4,1.72,16.32,16.32,0,0,1,6.4,5.08V260.42Zm-14.56,51.24a13.19,13.19,0,0,0,5.12-5.28,17.45,17.45,0,0,0,0-15.6,12.94,12.94,0,0,0-5.12-5.24,15.4,15.4,0,0,0-14.6,0,13.26,13.26,0,0,0-5.12,5.24,17.12,17.12,0,0,0,0,15.6,13.53,13.53,0,0,0,5.12,5.28,15.11,15.11,0,0,0,14.6,0Z"/><path class="cls-3" d="M772.16,301.14h-34.4a13.31,13.31,0,0,0,4.92,9,16.05,16.05,0,0,0,10.44,3.4,15.73,15.73,0,0,0,12.24-5.12l4.24,5a18.56,18.56,0,0,1-7.16,5.12,27,27,0,0,1-21.48-1,19.66,19.66,0,0,1-8-7.72,22.13,22.13,0,0,1-2.84-11.2,22.48,22.48,0,0,1,2.76-11.12,19.77,19.77,0,0,1,7.6-7.72A21.65,21.65,0,0,1,751.36,277a21.22,21.22,0,0,1,10.84,2.76,19.4,19.4,0,0,1,7.44,7.72,23.53,23.53,0,0,1,2.68,11.36A22.06,22.06,0,0,1,772.16,301.14Zm-30-14.32a13.55,13.55,0,0,0-4.36,8.8H765a13.64,13.64,0,0,0-4.36-8.76,14.32,14.32,0,0,0-18.48,0Z"/><path class="cls-3" d="M796.24,278.9a21.48,21.48,0,0,1,9.52-1.92v7.44a15.36,15.36,0,0,0-1.76-.08q-6.24,0-9.8,3.72t-3.56,10.6v21.12H783v-42.4h7.36v7.12A13.1,13.1,0,0,1,796.24,278.9Z"/><path class="cls-3" d="M844,281.3q4.68,4.32,4.68,12.88v25.6h-7.28v-5.6A12.14,12.14,0,0,1,836,318.7a20.92,20.92,0,0,1-8.44,1.56q-7.12,0-11.4-3.44a11.82,11.82,0,0,1-.2-18q4.08-3.4,13-3.4H841v-1.52q0-5-2.88-7.6t-8.48-2.64a22.46,22.46,0,0,0-7.36,1.24,19,19,0,0,0-6.08,3.32l-3.2-5.76a23.24,23.24,0,0,1,7.84-4,32.86,32.86,0,0,1,9.68-1.4Q839.36,277,844,281.3Zm-7.64,31.08a11.21,11.21,0,0,0,4.64-5.56V300.9H829.2q-9.76,0-9.76,6.56a5.93,5.93,0,0,0,2.48,5,11.33,11.33,0,0,0,6.88,1.84A14.26,14.26,0,0,0,836.4,312.38Z"/><path class="cls-3" d="M870.12,317.46a20.5,20.5,0,0,1-8-7.72,23.06,23.06,0,0,1,0-22.32,20.23,20.23,0,0,1,8-7.68A23.82,23.82,0,0,1,881.68,277,22.2,22.2,0,0,1,892,279.3a16.54,16.54,0,0,1,7,6.72l-5.84,3.76a13.06,13.06,0,0,0-5-4.56,14.16,14.16,0,0,0-6.56-1.52,15.18,15.18,0,0,0-7.48,1.84,13.11,13.11,0,0,0-5.2,5.24,15.85,15.85,0,0,0-1.88,7.8,16,16,0,0,0,1.88,7.88,13.1,13.1,0,0,0,5.2,5.24,15.15,15.15,0,0,0,7.48,1.84,14.15,14.15,0,0,0,6.56-1.52,13.05,13.05,0,0,0,5-4.56l5.84,3.68a16.77,16.77,0,0,1-7,6.76,21.88,21.88,0,0,1-10.28,2.36A23.53,23.53,0,0,1,870.12,317.46Z"/><path class="cls-3" d="M909,267.78a4.72,4.72,0,0,1-1.48-3.52A4.85,4.85,0,0,1,909,260.7a5,5,0,0,1,3.72-1.48,5.2,5.2,0,0,1,3.72,1.4,4.6,4.6,0,0,1,1.48,3.48,5,5,0,0,1-1.48,3.64,5,5,0,0,1-3.72,1.48A5.12,5.12,0,0,1,909,267.78Zm-.12,9.6h7.68v42.4h-7.68Z"/><path class="cls-3" d="M920.56,335.14a10.79,10.79,0,0,1-4-1.92L919,327.3a9.42,9.42,0,0,0,6.24,2,5.88,5.88,0,0,0,4.68-1.88,8.25,8.25,0,0,0,1.64-5.56V277.38h7.68V321.7q0,6.56-3.52,10.32t-10,3.76A20.17,20.17,0,0,1,920.56,335.14Zm11.16-67.36a4.72,4.72,0,0,1-1.48-3.52,4.85,4.85,0,0,1,1.48-3.56,5,5,0,0,1,3.72-1.48,5.21,5.21,0,0,1,3.72,1.4,4.6,4.6,0,0,1,1.48,3.48,5,5,0,0,1-1.48,3.64,5,5,0,0,1-3.72,1.48A5.12,5.12,0,0,1,931.72,267.78Z"/><path class="cls-3" d="M982.84,281.3q4.68,4.32,4.68,12.88v25.6h-7.28v-5.6a12.14,12.14,0,0,1-5.48,4.52,20.92,20.92,0,0,1-8.44,1.56q-7.12,0-11.4-3.44a11.82,11.82,0,0,1-.2-18q4.08-3.4,13-3.4h12.16v-1.52q0-5-2.88-7.6t-8.48-2.64a22.46,22.46,0,0,0-7.36,1.24,19,19,0,0,0-6.08,3.32l-3.2-5.76a23.24,23.24,0,0,1,7.84-4,32.86,32.86,0,0,1,9.68-1.4Q978.16,277,982.84,281.3Zm-7.64,31.08a11.21,11.21,0,0,0,4.64-5.56V300.9H968q-9.76,0-9.76,6.56a5.93,5.93,0,0,0,2.48,5,11.33,11.33,0,0,0,6.88,1.84A14.26,14.26,0,0,0,975.2,312.38Z"/><path class="cls-3" d="M1042.64,294.9l-10.24,10.4v14.48h-8v-56h8v31.28l30.4-31.28h9.12L1048,289l25.44,30.8h-9.36Z"/><path class="cls-3" d="M1080.8,260.42h7.68v59.36h-7.68Z"/><path class="cls-3" d="M1142.64,277.38v42.4h-7.28v-6.4a15.43,15.43,0,0,1-6.12,5.08,19.09,19.09,0,0,1-8.28,1.8q-8.48,0-13.36-4.68t-4.88-13.8v-24.4h7.68V300.9q0,6.16,3,9.32t8.48,3.16q6.08,0,9.6-3.68t3.52-10.4V277.38Z"/><path class="cls-3" d="M1190.79,279.7a19.57,19.57,0,0,1,7.64,7.6,24.51,24.51,0,0,1,0,22.6,19.48,19.48,0,0,1-7.64,7.64,22.28,22.28,0,0,1-11,2.72,20.06,20.06,0,0,1-8.64-1.84,16.6,16.6,0,0,1-6.48-5.36v6.72h-7.36V260.42H1165v23.36a16.31,16.31,0,0,1,6.4-5.08,20.32,20.32,0,0,1,8.4-1.72A22.3,22.3,0,0,1,1190.79,279.7Zm-4.36,32a13.54,13.54,0,0,0,5.12-5.28,17.12,17.12,0,0,0,0-15.6,13.27,13.27,0,0,0-5.12-5.24,15.4,15.4,0,0,0-14.6,0,12.92,12.92,0,0,0-5.12,5.24,17.45,17.45,0,0,0,0,15.6,13.17,13.17,0,0,0,5.12,5.28,15.11,15.11,0,0,0,14.6,0Z"/><path class="cls-3" d="M1218.63,317.46a20.29,20.29,0,0,1-7.88-7.72,23.35,23.35,0,0,1,0-22.32,20,20,0,0,1,7.88-7.68,24.68,24.68,0,0,1,22.68,0,20.11,20.11,0,0,1,7.84,7.68,23.35,23.35,0,0,1,0,22.32,20.39,20.39,0,0,1-7.84,7.72,24.36,24.36,0,0,1-22.68,0Zm18.68-5.8a13.26,13.26,0,0,0,5.08-5.28,17.45,17.45,0,0,0,0-15.6,13,13,0,0,0-5.08-5.24,15.48,15.48,0,0,0-14.64,0,13.26,13.26,0,0,0-5.12,5.24,17.12,17.12,0,0,0,0,15.6,13.53,13.53,0,0,0,5.12,5.28,15.19,15.19,0,0,0,14.64,0Z"/><path class="cls-3" d="M1299,277.38l-18.56,42.4h-7.84L1254,277.38h8l14.56,34,14.88-34Z"/><path class="cls-3" d="M1333.71,281.3q4.68,4.32,4.68,12.88v25.6h-7.28v-5.6a12.14,12.14,0,0,1-5.48,4.52,20.92,20.92,0,0,1-8.44,1.56q-7.12,0-11.4-3.44a11.82,11.82,0,0,1-.2-18q4.08-3.4,13-3.4h12.16v-1.52q0-5-2.88-7.6t-8.48-2.64a22.46,22.46,0,0,0-7.36,1.24,19,19,0,0,0-6.08,3.32l-3.2-5.76a23.24,23.24,0,0,1,7.84-4,32.86,32.86,0,0,1,9.68-1.4Q1329,277,1333.71,281.3Zm-7.64,31.08a11.21,11.21,0,0,0,4.64-5.56V300.9h-11.84q-9.76,0-9.76,6.56a5.93,5.93,0,0,0,2.48,5,11.33,11.33,0,0,0,6.88,1.84A14.26,14.26,0,0,0,1326.07,312.38Z"/><path class="cls-3" d="M1405.59,313.46v6.32h-35.52v-5l25-31.12h-24.56v-6.32H1405v5l-25,31Z"/><path class="cls-3" d="M1444.75,281.3q4.68,4.32,4.68,12.88v25.6h-7.28v-5.6a12.14,12.14,0,0,1-5.48,4.52,20.92,20.92,0,0,1-8.44,1.56q-7.12,0-11.4-3.44a11.82,11.82,0,0,1-.2-18q4.08-3.4,13-3.4h12.16v-1.52q0-5-2.88-7.6t-8.48-2.64a22.46,22.46,0,0,0-7.36,1.24,19,19,0,0,0-6.08,3.32l-3.2-5.76a23.24,23.24,0,0,1,7.84-4,32.86,32.86,0,0,1,9.68-1.4Q1440.07,277,1444.75,281.3Zm-7.64,31.08a11.21,11.21,0,0,0,4.64-5.56V300.9h-11.84q-9.76,0-9.76,6.56a5.93,5.93,0,0,0,2.48,5,11.33,11.33,0,0,0,6.88,1.84A14.26,14.26,0,0,0,1437.11,312.38Z"/><path class="cls-3" d="M1492.07,314q-6.24-6.4-6.24-18.4V263.78h8V295.3q0,18,15.76,18,7.68,0,11.76-4.44t4.08-13.56V263.78h7.76v31.84q0,12.08-6.24,18.44t-17.44,6.36Q1498.31,320.42,1492.07,314Z"/><path class="cls-3" d="M1584,281.66q4.76,4.68,4.76,13.72v24.4H1581V296.26q0-6.16-3-9.28t-8.48-3.12q-6.24,0-9.84,3.64t-3.6,10.44v21.84h-7.68v-42.4h7.36v6.4a14.94,14.94,0,0,1,6.28-5,22,22,0,0,1,9-1.76Q1579.19,277,1584,281.66Z"/><path class="cls-3" d="M1641.35,301.14h-34.4a13.31,13.31,0,0,0,4.92,9,16.05,16.05,0,0,0,10.44,3.4,15.73,15.73,0,0,0,12.24-5.12l4.24,5a18.56,18.56,0,0,1-7.16,5.12,27,27,0,0,1-21.48-1,19.67,19.67,0,0,1-8-7.72,22.13,22.13,0,0,1-2.84-11.2,22.48,22.48,0,0,1,2.76-11.12,19.77,19.77,0,0,1,7.6-7.72,21.65,21.65,0,0,1,10.92-2.76,21.22,21.22,0,0,1,10.84,2.76,19.4,19.4,0,0,1,7.44,7.72,23.53,23.53,0,0,1,2.68,11.36A22.29,22.29,0,0,1,1641.35,301.14Zm-30-14.32a13.54,13.54,0,0,0-4.36,8.8h27.2a13.64,13.64,0,0,0-4.36-8.76,14.32,14.32,0,0,0-18.48,0Z"/><path class="cls-3" d="M1654.31,318.86a21.93,21.93,0,0,1-7.52-3.56l3.2-6.08a23,23,0,0,0,6.8,3.2,28,28,0,0,0,8.08,1.2q10.08,0,10.08-5.76a3.73,3.73,0,0,0-1.36-3,8.62,8.62,0,0,0-3.4-1.64q-2-.52-5.8-1.16a56.82,56.82,0,0,1-8.36-1.84,12.88,12.88,0,0,1-5.56-3.52,9.79,9.79,0,0,1-2.32-7,10.87,10.87,0,0,1,4.8-9.24q4.8-3.48,12.88-3.48a35.55,35.55,0,0,1,8.48,1,22.83,22.83,0,0,1,7,2.8L1678,286.9a22.06,22.06,0,0,0-12.24-3.36q-4.88,0-7.44,1.6a4.83,4.83,0,0,0-2.56,4.24,4,4,0,0,0,1.44,3.28,9.08,9.08,0,0,0,3.56,1.76q2.12.56,6,1.28a65.06,65.06,0,0,1,8.28,1.88,12.37,12.37,0,0,1,5.4,3.4,9.47,9.47,0,0,1,2.24,6.72,10.6,10.6,0,0,1-4.92,9.16q-4.92,3.4-13.4,3.4A35.55,35.55,0,0,1,1654.31,318.86Z"/><path class="cls-3" d="M1699.15,317.46a20.5,20.5,0,0,1-8-7.72,23.06,23.06,0,0,1,0-22.32,20.23,20.23,0,0,1,8-7.68,23.82,23.82,0,0,1,11.56-2.76A22.2,22.2,0,0,1,1721,279.3a16.54,16.54,0,0,1,7,6.72l-5.84,3.76a13.06,13.06,0,0,0-5-4.56,14.16,14.16,0,0,0-6.56-1.52,15.17,15.17,0,0,0-7.48,1.84,13.11,13.11,0,0,0-5.2,5.24,15.85,15.85,0,0,0-1.88,7.8,16,16,0,0,0,1.88,7.88,13.1,13.1,0,0,0,5.2,5.24,15.15,15.15,0,0,0,7.48,1.84,14.14,14.14,0,0,0,6.56-1.52,13,13,0,0,0,5-4.56l5.84,3.68a16.77,16.77,0,0,1-7,6.76,21.88,21.88,0,0,1-10.28,2.36A23.53,23.53,0,0,1,1699.15,317.46Z"/><path class="cls-3" d="M1744.07,317.46a20.29,20.29,0,0,1-7.88-7.72,23.35,23.35,0,0,1,0-22.32,20,20,0,0,1,7.88-7.68,24.68,24.68,0,0,1,22.68,0,20.1,20.1,0,0,1,7.84,7.68,23.34,23.34,0,0,1,0,22.32,20.38,20.38,0,0,1-7.84,7.72,24.36,24.36,0,0,1-22.68,0Zm18.68-5.8a13.26,13.26,0,0,0,5.08-5.28,17.45,17.45,0,0,0,0-15.6,13,13,0,0,0-5.08-5.24,15.48,15.48,0,0,0-14.64,0,13.27,13.27,0,0,0-5.12,5.24,17.12,17.12,0,0,0,0,15.6,13.53,13.53,0,0,0,5.12,5.28,15.19,15.19,0,0,0,14.64,0Z"/><path class="cls-3" d="M1814.83,318.46a25,25,0,0,1-9.24-5.08l3-6.24a24.49,24.49,0,0,0,8.2,4.68,30.12,30.12,0,0,0,10.28,1.8q7,0,10.4-2.36a7.28,7.28,0,0,0,3.44-6.28,6.19,6.19,0,0,0-1.88-4.68,12.6,12.6,0,0,0-4.64-2.76q-2.76-1-7.8-2.16a79.84,79.84,0,0,1-10.2-3,16.83,16.83,0,0,1-6.64-4.68q-2.76-3.16-2.76-8.52a14.41,14.41,0,0,1,2.36-8.08,16.21,16.21,0,0,1,7.16-5.76,29,29,0,0,1,11.92-2.16,37.75,37.75,0,0,1,9.76,1.28,26,26,0,0,1,8.24,3.68l-2.64,6.4a29,29,0,0,0-7.52-3.4,28.1,28.1,0,0,0-7.84-1.16q-6.8,0-10.2,2.48a7.6,7.6,0,0,0-3.4,6.4,6.12,6.12,0,0,0,1.92,4.68,13.3,13.3,0,0,0,4.76,2.8,73.8,73.8,0,0,0,7.72,2.12,78.51,78.51,0,0,1,10.16,3,17.11,17.11,0,0,1,6.6,4.64,12.22,12.22,0,0,1,2.76,8.4,14.3,14.3,0,0,1-2.4,8,16.06,16.06,0,0,1-7.28,5.76,30.1,30.1,0,0,1-12,2.12A38.3,38.3,0,0,1,1814.83,318.46Z"/><path class="cls-3" d="M1872.55,278.9a21.48,21.48,0,0,1,9.52-1.92v7.44a15.36,15.36,0,0,0-1.76-.08q-6.24,0-9.8,3.72t-3.56,10.6v21.12h-7.68v-42.4h7.36v7.12A13.11,13.11,0,0,1,1872.55,278.9Z"/><path class="cls-3" d="M1925,279.7a19.58,19.58,0,0,1,7.64,7.6,24.52,24.52,0,0,1,0,22.6,19.49,19.49,0,0,1-7.64,7.64,22.28,22.28,0,0,1-11,2.72,20.06,20.06,0,0,1-8.64-1.84,16.61,16.61,0,0,1-6.48-5.36v6.72h-7.36V260.42h7.68v23.36a16.31,16.31,0,0,1,6.4-5.08A20.31,20.31,0,0,1,1914,277,22.3,22.3,0,0,1,1925,279.7Zm-4.36,32a13.53,13.53,0,0,0,5.12-5.28,17.11,17.11,0,0,0,0-15.6,13.27,13.27,0,0,0-5.12-5.24,15.4,15.4,0,0,0-14.6,0,12.92,12.92,0,0,0-5.12,5.24,17.45,17.45,0,0,0,0,15.6,13.17,13.17,0,0,0,5.12,5.28,15.11,15.11,0,0,0,14.6,0Z"/><path class="cls-3" d="M1946.19,267.78a4.72,4.72,0,0,1-1.48-3.52,4.85,4.85,0,0,1,1.48-3.56,5,5,0,0,1,3.72-1.48,5.2,5.2,0,0,1,3.72,1.4,4.6,4.6,0,0,1,1.48,3.48,5,5,0,0,1-1.48,3.64,5,5,0,0,1-3.72,1.48A5.12,5.12,0,0,1,1946.19,267.78Zm-.12,9.6h7.68v42.4h-7.68Z"/><path class="cls-3" d="M1957.75,335.14a10.79,10.79,0,0,1-4-1.92l2.48-5.92a9.42,9.42,0,0,0,6.24,2,5.88,5.88,0,0,0,4.68-1.88,8.24,8.24,0,0,0,1.64-5.56V277.38h7.68V321.7q0,6.56-3.52,10.32t-10,3.76A20.18,20.18,0,0,1,1957.75,335.14Zm11.16-67.36a4.72,4.72,0,0,1-1.48-3.52,4.85,4.85,0,0,1,1.48-3.56,5,5,0,0,1,3.72-1.48,5.21,5.21,0,0,1,3.72,1.4,4.6,4.6,0,0,1,1.48,3.48,5,5,0,0,1-1.48,3.64,5,5,0,0,1-3.72,1.48A5.12,5.12,0,0,1,1968.91,267.78Z"/><path class="cls-3" d="M2029.27,301.14h-34.4a13.31,13.31,0,0,0,4.92,9,16.05,16.05,0,0,0,10.44,3.4,15.73,15.73,0,0,0,12.24-5.12l4.24,5a18.56,18.56,0,0,1-7.16,5.12,27,27,0,0,1-21.48-1,19.67,19.67,0,0,1-8-7.72,22.13,22.13,0,0,1-2.84-11.2,22.48,22.48,0,0,1,2.76-11.12,19.77,19.77,0,0,1,7.6-7.72,21.65,21.65,0,0,1,10.92-2.76,21.22,21.22,0,0,1,10.84,2.76,19.4,19.4,0,0,1,7.44,7.72,23.53,23.53,0,0,1,2.68,11.36A22.29,22.29,0,0,1,2029.27,301.14Zm-30-14.32a13.54,13.54,0,0,0-4.36,8.8h27.2a13.64,13.64,0,0,0-4.36-8.76,14.32,14.32,0,0,0-18.48,0Z"/></g></g></svg>